<?xml version="1.0" encoding="utf-8"?>
<!-- Generator: Adobe Illustrator 22.0.1, SVG Export Plug-In . SVG Version: 6.00 Build 0)  -->
<svg version="1.1" id="Calque_2" xmlns="http://www.w3.org/2000/svg" xmlns:xlink="http://www.w3.org/1999/xlink" x="0px" y="0px"
	 viewBox="0 0 693.3 96.3" style="enable-background:new 0 0 693.3 96.3;" xml:space="preserve">
<style type="text/css">
	.st0{fill:none;stroke:#FFFFFF;stroke-width:6;stroke-miterlimit:10;}
</style>
<path class="st0" d="M6.7,95.1v-45h23c0,0,28.1,2.5,30-22.1S34.7,3.1,34.7,3.1h-28l52.5,91.5"/>
<path class="st0" d="M146.7,91.1h-55v-88h55"/>
<path class="st0" d="M146.7,47.1h-55"/>
<path class="st0" d="M153,94.6l36.1-84.3l35.1,80.8h-35.5l35.5-80.8l37.2,84.8"/>
<path class="st0" d="M280.7,3.1v88"/>
<path class="st0" d="M269.3,3.1c1.6-0.1,23.6,0,23.6,0"/>
<path class="st0" d="M269.7,91.1h23"/>
<path class="st0" d="M414.3,94.1v-92"/>
<path class="st0" d="M384.3,3.1h59"/>
<path class="st0" d="M460.3,95.1v-45h23c0,0,28.1,2.5,30-22.1c2-24.6-25.1-24.9-25.1-24.9h-28l52.5,91.5"/>
<path class="st0" d="M529.4,94.1l37-84.6l36.8,84.6"/>
<path class="st0" d="M536.3,79.1h60"/>
<path class="st0" d="M626.3,95.1v-86l62,76v-85"/>
</svg>
